<svg xmlns="http://www.w3.org/2000/svg" width="36" height="58" viewBox="0 0 36 58">
  <metadata><?xpacket begin="﻿" id="W5M0MpCehiHzreSzNTczkc9d"?>
<x:xmpmeta xmlns:x="adobe:ns:meta/" x:xmptk="Adobe XMP Core 5.6-c138 79.159824, 2016/09/14-01:09:01        ">
   <rdf:RDF xmlns:rdf="http://www.w3.org/1999/02/22-rdf-syntax-ns#">
      <rdf:Description rdf:about=""/>
   </rdf:RDF>
</x:xmpmeta>
                                                                                                    
                                                                                                    
                                                                                                    
                                                                                                    
                                                                                                    
                                                                                                    
                                                                                                    
                                                                                                    
                                                                                                    
                                                                                                    
                                                                                                    
                                                                                                    
                                                                                                    
                                                                                                    
                                                                                                    
                                                                                                    
                                                                                                    
                                                                                                    
                                                                                                    
                                                                                                    
                           
<?xpacket end="w"?></metadata>
<defs>
    <style>
      .cls-1 {
        fill: #fff;
        fill-rule: evenodd;
      }
    </style>
  </defs>
  <path id="мышка" class="cls-1" d="M1026.34,1183.56c-3.17-3.69-7.99-5.56-14.34-5.56s-11.17,1.87-14.339,5.56A15.972,15.972,0,0,0,994,1193.89v26.22a15.932,15.932,0,0,0,3.661,10.32c3.169,3.7,7.989,5.57,14.339,5.57s11.17-1.87,14.34-5.57a15.964,15.964,0,0,0,3.66-10.32v-26.22A16,16,0,0,0,1026.34,1183.56ZM1012,1198.21a2.386,2.386,0,0,1-2.39-2.37v-5.08a2.385,2.385,0,0,1,4.77,0v5.08A2.384,2.384,0,0,1,1012,1198.21Zm16.12,21.9c0,2.34-.78,14.02-16.12,14.02s-16.118-11.68-16.118-14.02v-26.22c0-2.29.748-13.53,15.178-14v6.73a4.263,4.263,0,0,0-3.33,4.14v5.08a4.26,4.26,0,0,0,3.33,4.13v7.69a0.94,0.94,0,0,0,1.88,0v-7.69a4.26,4.26,0,0,0,3.33-4.13v-5.08a4.263,4.263,0,0,0-3.33-4.14v-6.73c14.43,0.47,15.18,11.71,15.18,14v26.22Z" transform="translate(-994 -1178)"/>
</svg>
